<svg xmlns="http://www.w3.org/2000/svg" xmlns:xlink="http://www.w3.org/1999/xlink" width="32" height="32" viewBox="0 0 64 64"><path fill="#231f20" d="m31.4 31.4l-.5-6.3l-3.4.3l.5 5.5l-9.4 4.4l3.8 3s2.7-1.1 2.5-2l5.7-3.1c.7-.3 1-1.1.8-1.8"/><path fill="#e6e6e6" d="M57 35.2L40.8 45.4l.9 1.2l16.9-8.1c0-1.2-.5-2.5-1.6-3.3"/><g fill="#3e4347"><path d="m40.1 44.7l4.8-2.3s2.2 1.9-.2 4.1l-4.6-1.8m-28.7-1.5c-5.2 0-9.4 4.2-9.4 9.4S6.2 62 11.4 62s9.4-4.2 9.4-9.4s-4.2-9.4-9.4-9.4m0 16c-3.6 0-6.6-2.9-6.6-6.6c0-3.6 2.9-6.6 6.6-6.6c3.6 0 6.6 2.9 6.6 6.6c-.1 3.7-3 6.6-6.6 6.6"/><path d="m18.4 52.2l-4.3-.3l3.6-2.4l-.5-.8l-3.8 1.9l1.8-3.9l-.7-.4l-2.4 3.5l-.3-4.2h-.9l-.3 4.2l-2.3-3.5l-.8.5l1.8 3.8l-3.8-1.8l-.4.7l3.5 2.4l-4.3.3v.9l4.3.3l-3.5 2.3l.4.8l3.8-1.8l-1.8 3.8l.8.4l2.3-3.5l.4 4.3h.8l.3-4.3l2.4 3.5l.8-.4l-1.9-3.8l3.8 1.8l.5-.8l-3.5-2.3l4.2-.3z"/></g><path fill="#e6e6e6" d="M11.4 47.9c-2.6 0-4.7 2.1-4.7 4.7s2.1 4.7 4.7 4.7s4.7-2.1 4.7-4.7s-2.1-4.7-4.7-4.7m0 7.5c-1.6 0-2.8-1.3-2.8-2.8s1.3-2.8 2.8-2.8c1.6 0 2.8 1.3 2.8 2.8s-1.3 2.8-2.8 2.8"/><path fill="#94989b" d="M35.8 42.1v6.3l16.4 6.9l1.8-5z"/><path fill="#3e4347" d="M52.6 43.2c-5.2 0-9.4 4.2-9.4 9.4s4.2 9.4 9.4 9.4s9.4-4.2 9.4-9.4s-4.2-9.4-9.4-9.4m0 16c-3.6 0-6.6-2.9-6.6-6.6c0-3.6 2.9-6.6 6.6-6.6c3.6 0 6.6 2.9 6.6 6.6c0 3.7-3 6.6-6.6 6.6"/><path fill="#94989b" d="M13.9 35.7v2.8l14.6 2.1c-5.1-4.9-14.6-4.9-14.6-4.9"/><path fill="#3e4347" d="M28.4 40.3L50.8 33l.9 5.3l-19.6 9.6z"/><path fill="#ed4c5c" d="m27.7 40.8l.2-2.7c0-.5.5-.9 1-1.1c1.5-.5 5.9-2.2 5.9-2.2l2.8 3.5l-9.9 2.5"/><path fill="#3e4347" d="m11.4 53.3l8.3-11.9l-2.5-1.9l-6.4 13.1z"/><path fill="#c94747" d="M19.4 46.2c-1.9-2.4-4.8-3.9-8-3.9c-2.5 0-4.8.9-6.5 2.3l14.5 1.6"/><path fill="#3e4347" d="m59.7 52.2l-4.3-.3l3.5-2.4l-.4-.8l-3.9 1.9l1.9-3.9l-.8-.4l-2.3 3.5l-.3-4.2h-.9l-.3 4.2l-2.4-3.5l-.8.5l1.9 3.8l-3.9-1.8l-.4.7l3.6 2.4l-4.3.3v.9l4.2.3l-3.5 2.3l.5.8l3.8-1.8l-1.9 3.8l.8.4l2.4-3.5l.3 4.3h.9l.3-4.3l2.4 3.5l.7-.4l-1.8-3.8l3.8 1.8l.4-.8l-3.5-2.3l4.3-.3z"/><path fill="#e6e6e6" d="M52.6 47.9c-2.6 0-4.7 2.1-4.7 4.7s2.1 4.7 4.7 4.7s4.7-2.1 4.7-4.7s-2.1-4.7-4.7-4.7m0 7.5c-1.6 0-2.8-1.3-2.8-2.8s1.3-2.8 2.8-2.8s2.8 1.3 2.8 2.8s-1.2 2.8-2.8 2.8"/><path fill="#ed4c5c" d="M44.9 38.4c-1.7.8-1.6 2.4-1.6 2.4s5.2-.3 11.8-3.9c3.2-1.8 3.2-5.6 3.2-5.6c-11.4-.2-8.1 4.4-13.4 7.1m-3.1 9.3c-5.1 0-5.5-4.5-10.3-6.3c-6-2.3-14.8-3.3-16.4-3.3c-1.7 0-.4-1.9 0-2.4c3.4-4 7.8-3.3 7.8-3.3l-1.4-1.3c-4.2 0-7.9 2.1-10.1 5.3c-.9 1.3-2.3 3.1-1.5 3.6c2 1.4 8.1 5.4 8.1 5.4s2.4 1.6 2.8 2.4c.9 1.6 1 8 1 8c0 .7.5 1.4 1.4 1.3l18.4-2.5c-.5-1.3-.8-3.6.2-6.9"/><path fill="#fff" d="M11.4 39h2.5l-.8 2s-3.6-2-1.7-2"/><path fill="#666c70" d="M30.1 48c-1.9-.5-3.8.6-4.3 2.5l8.2 2.1c.9.2 1.9-.3 2.1-1.2l.4-1.7l-6.4-1.7"/><path fill="#231f20" d="m48 28.4l-13.8 5.8l-3.5 13.9l5.8 1.5l3.4-11.2s5.6-2.4 7.1-3.6c1.3-1.1 2.9-3.6 1-6.4"/><path fill="#3e4347" d="M48 28.4s-8.2-8.7-16.2-8.5l-6.1 4.8l.5 5.5l-4.8 2.6l1.6 2.9l5.8-3.1c.7-.4.9-1 .9-1.9c-.1-.7-.2-2.8-.2-2.8l6.6 5.8L48 28.4"/><path fill="#666c70" d="m22.5 34.2l-.6-1.5c-.2-.5-.9-.8-1.4-.5l-.7.3c-.5.1-.8.5-.8.9c-1 .5-2.1 1.4-1.3 3.2c.1.3.8 1.9 2.8 1.1c2.9-1.3 2.9-1.3 2-3.5"/><path fill="#ed4c5c" d="M37.3 13.5c0 6.3-1.8 6.1-11.5 11.5c-3.2 1.8-7.7 1.8-9.8-5.6c-.7-2.4-1.6-3.2-1.6-5.8C14.4 7.1 19.5 2 25.9 2c6.3 0 11.4 5.1 11.4 11.5"/><path fill="#3e4347" d="M28.5 13.2c.7 1.9-7.5 6.6-12.5 8.4c-1.2.5-3.7-6.3-2.5-6.7c5-1.9 14.3-3.6 15-1.7"/><circle cx="28.2" cy="12.9" r="2" fill="#94989b"/></svg>